<svg width="337.1188023419552" height="335.56960000000004" xmlns="http://www.w3.org/2000/svg" viewBox="92.00370562513895 0 337.1188023419552 335.56960000000004">
 <style>.st0{fill:#c3c9c6}.st1{fill:#c3c9c6}</style>

 <g>
  <title>background</title>
  <rect fill="none" id="canvas_background" height="602" width="802" y="-1" x="-1"></rect>
 </g>
 <g>
  <title>Layer 1</title>
  <path id="svg_3" d="m286.4,165.1l0,-158.5c0,-6.4 0,-6.4 6.6,-6.4c15.9,0 31.7,-0.1 47.6,0c41.9,0.2 77.7,32 82.9,73.6c0.5,4 0.7,8.1 0.7,12.1c0,53.1 0.1,106.2 0,159.3c0,42 -27.7,75.9 -68.9,84.2c-5.5,1.1 -11.2,1.4 -16.8,1.5c-15.6,0.2 -31.2,0.1 -46.8,0.1c-5,0 -5.3,-0.3 -5.3,-5.4l0,-160.5zm98.5,17.1c0,-18.6 -14.6,-33.2 -33,-33.2c-18.3,0 -33,14.6 -33.1,32.9c-0.1,18.6 14.5,33.4 32.9,33.5c18.4,0 33.1,-14.7 33.2,-33.2zm-131,-16.3l0,158.5c0,6.6 0,6.6 -6.5,6.6c-23.3,0 -46.7,0.3 -70,-0.1c-43.8,-0.8 -79.6,-35.3 -82.3,-78.9c-0.2,-3.9 -0.4,-7.9 -0.4,-11.8l0,-151.8c0,-16.2 3,-31.6 11.4,-45.5c16.6,-27.5 41,-42 73.2,-42.6c22.9,-0.4 45.9,-0.1 68.8,-0.1c5.7,0 5.8,0.1 5.8,6l0,159.7zm-27.1,-138.6l-53.3,0c-1.9,0 -3.9,0.5 -5.8,0.9c-27.8,6.1 -46.1,29.1 -46.1,58.6c-0.1,52.4 0,104.9 0,157.3c0,4 0.3,8.2 1,12.1c5.5,28.6 28.4,47.5 57.5,47.7c14.3,0.1 28.6,0 42.9,0c1.2,0 2.5,-0.2 3.8,-0.2l0,-276.4z" class="st1"></path>
  <path id="svg_5" d="m146.1,99.5c0,-17.3 13.9,-31.4 31,-31.4c17.2,0 31.2,14.2 31.1,31.4c-0.1,17.2 -13.9,31 -30.9,31.2c-17.1,0.2 -31.2,-13.9 -31.2,-31.2z" class="st1"></path>
 </g>
</svg>