<svg id="Nintendo_Switch" xmlns="http://www.w3.org/2000/svg" viewBox="0 0 540.2 524.4" width="2500" height="2427">
<style>.st1{fill:#c3c9c6}</style>
<path class="st1" d="M286.4 165.1V6.6c0-6.4 0-6.4 6.6-6.4 15.9 0 31.7-.1 47.6 0 41.9.2 77.7 32 82.9 73.6.5 4 .7 8.1.7 12.1 0 53.1.1 106.2 0 159.3 0 42-27.7 75.9-68.9 84.2-5.5 1.1-11.2 1.4-16.8 1.5-15.6.2-31.2.1-46.8.1-5 0-5.3-.3-5.3-5.4V165.1zm98.5 17.1c0-18.6-14.6-33.2-33-33.2-18.3 0-33 14.6-33.1 32.9-.1 18.6 14.5 33.4 32.9 33.5 18.4 0 33.1-14.7 33.2-33.2zM253.9 165.9v158.5c0 6.6 0 6.6-6.5 6.6-23.3 0-46.7.3-70-.1-43.8-.8-79.6-35.3-82.3-78.9-.2-3.9-.4-7.9-.4-11.8V88.4c0-16.2 3-31.6 11.4-45.5 16.6-27.5 41-42 73.2-42.6 22.9-.4 45.9-.1 68.8-.1 5.7 0 5.8.1 5.8 6v159.7zM226.8 27.3h-53.3c-1.9 0-3.9.5-5.8.9-27.8 6.1-46.1 29.1-46.1 58.6-.1 52.4 0 104.9 0 157.3 0 4 .3 8.2 1 12.1 5.5 28.6 28.4 47.5 57.5 47.7 14.3.1 28.6 0 42.9 0 1.2 0 "/>
<path class="st1" d="M146.1 99.5c0-17.3 13.9-31.4 31-31.4 17.2 0 31.2 14.2 31.1 31.4-.1 17.2-13.9 31-30.9 31.2-17.1.2-31.2-13.9-31.2-31.2zM509.3 511.9v9.2h3.5v-9.2h2.9V509h-9.8v2.9zM518 509.5v11.6h2.3v-6.7c0-.4.5-.5.6-.1l2.5 6.8h2.4l1.8-7c.1-.2.4-.2.4 0v7h2.7v-11.6h-3.1l-2.7 7.4c-.1.2-.4.2-.4 0l-2.5-7.4h-4z"/>
</svg>